<svg height="302" preserveAspectRatio="xMidYMid" viewBox="0 0 512 302" width="512" xmlns="http://www.w3.org/2000/svg"><path d="m38.5170778 39.3428059c28.1554228-28.7103206 63.6325252-41.82904925 106.7465942-38.95519179 41.520884 2.76746299 83.828538 23.25235059 114.138553 53.43802819 25.760963 25.6544822 35.502244 50.7854127 35.166621 88.3424077 2.862438-6.128487 8.456116-10.96471 17.400437-10.96471 13.529381 0 19.495331 11.008834 19.495331 20.506054v3.779926h-30.001486c0 6.640363 3.865793 11.681457 10.506155 11.681457 4.704783 0 8.992754-2.690492 11.092912-7.143041l7.477563 2.940936c-4.284394 8.318342-9.243199 11.93369-18.570475 11.93369-10.194956 0-16.036757-6.284176-18.442962-13.603445-3.718263 35.318225-17.650754 66.265556-41.925462 92.039409-29.279918 31.087248-62.567098 47.703093-100.914333 48.309397l-1.253288.014331c-38.800134.275012-72.8870434-15.185704-102.4209011-45.331972-29.3206177-29.930286-45.07539626-65.589513-46.83934701-107.560996-1.84187624-44.063835 11.03019201-81.5787331 38.34408791-109.4262801zm106.6276202-37.17026178c-42.599735-2.83957348-77.5651515 10.08994378-105.3504534 38.42284908-26.9499474 27.4764878-39.65604885 64.5076858-37.83393329 108.0987798 1.74517417 41.524711 17.31541359 76.766254 46.32989279 106.384036 29.5211954 30.133344 63.5605679 45.392895 102.3680589 44.780847l1.218606-.024772c37.317615-.927588 69.766301-17.298225 98.421757-47.722465 25.401441-26.97017 39.342733-59.650435 41.99059-97.159627-.046838-.638083-.069286-1.271966-.069286-1.899341 0-1.545831.136239-3.13108.417182-4.707351 1.475347-40.589956-7.706993-66.5728308-34.497211-93.2523139-30.014711-29.8915842-71.922953-50.18308152-112.995203-52.92064198zm54.026261 129.70467088 13.604514 31.037254 14.427403-31.037254h10.169844l-27.65625 59.494927h-10.171633l8.04822-17.309306-18.491764-42.185621zm66.538147-.673696c12.352291 0 18.906786 8.066108 18.906786 21.849511 0 13.445303-6.640362 21.849511-19.07673 21.849511-4.958805 0-9.243198-2.35418-11.343356-5.377405v21.845933h-8.74052v-59.493138h8.74052v4.872938c1.597479-2.774569 6.384551-5.54735 11.5133-5.54735zm123.033821 0c6.30405 0 11.345144 2.100158 15.126859 6.304051 3.781715 4.202104 5.713717 9.411354 5.713717 15.54546s-1.932002 11.345145-5.713717 15.547249c-3.781715 4.200316-8.822809 6.302262-15.126859 6.302262-6.302262 0-11.427434-2.101946-15.210938-6.302262-3.781715-4.202104-5.629639-9.413143-5.629639-15.547249s1.847924-11.343356 5.629639-15.54546c3.783504-4.203893 8.908676-6.304051 15.210938-6.304051zm-201.034643-15.796978v8.738731h-18.559741v50.085362h-9.244987v-50.085362h-18.559741v-8.738731zm251.438785 15.796799c1.932002 0 3.695848.338101 5.377405 1.008935l-1.513402 7.983819c-1.343456-.840779-3.023225-1.259379-4.957016-1.259379-3.109092 0-5.799583 1.679768-8.066108 5.123383-2.270102 3.361325-3.363114 8.151975-3.363114 14.454237v15.715404h-8.738731v-42.351987h8.738731v7.058963c2.774569-4.958805 7.815663-7.733375 12.522235-7.733375zm60.752874.001253c7.645719 0 12.100057 5.041094 12.100057 12.688601v30.336009h-8.738731v-28.402218c0-4.454338-2.438258-6.890807-6.219973-6.890807-5.461483 0-9.915821 7.141252-9.915821 18.318241v16.974784h-8.74052v-28.402218c0-4.454338-2.436469-6.890807-6.216395-6.890807-5.631428 0-9.91761 7.141252-9.91761 19.243097v16.049928h-8.738731v-42.351988h8.738731v7.227119c3.447192-5.295117 7.647507-7.899741 12.772679-7.899741 5.715506 0 10.422077 3.445403 11.683245 8.738731 2.939148-5.629639 7.729797-8.738731 13.193069-8.738731zm-141.646512-16.470675c2.772781 0 5.044672.502678 6.976674 1.511613l-1.767424 7.395274c-1.509824-.756701-3.191381-1.17709-4.957016-1.17709-3.779926 0-5.713717 2.186024-5.713717 6.640362v2.772781h9.327276v7.729796h-9.327276v34.622191h-8.738731v-34.622191h-5.463272v-7.729796h5.463272v-2.184236c0-10.001688 5.379194-14.958704 14.200214-14.958704zm-93.723204 24.201187c-3.193169 0-5.797794 1.261168-7.813874 3.867582-2.017869 2.518758-3.025014 5.964161-3.025014 10.250343s1.007145 7.729797 3.025014 10.336211c2.01608 2.520547 4.620705 3.781715 7.813874 3.781715 3.194959 0 5.799584-1.261168 7.817453-3.781715 2.01608-2.606414 3.023225-6.050029 3.023225-10.336211s-1.007145-7.731585-3.023225-10.250343c-2.017869-2.606414-4.622494-3.867582-7.817453-3.867582zm124.2127 0c-3.61356 0-6.470418 1.427535-8.572365 4.202104-2.01608 2.772781-3.023225 6.050028-3.023225 9.915821s1.007145 7.227119 3.023225 9.999899c2.101947 2.77457 4.958805 4.118027 8.572365 4.118027 3.613559 0 6.472206-1.343457 8.488286-4.118027 2.100158-2.77278 3.109092-6.134106 3.109092-9.999899s-1.008934-7.14304-3.109092-9.915821c-2.01608-2.774569-4.874727-4.202104-8.488286-4.202104zm-76.773644.00161c-5.629639 0-9.329065 3.779926-10.33621 9.243198h20.588343c-.756701-5.295116-4.286182-9.243198-10.252133-9.243198z" fill="#262627"/></svg>